<svg xmlns="http://www.w3.org/2000/svg" xmlns:xlink="http://www.w3.org/1999/xlink" width="500" zoomAndPan="magnify" viewBox="0 0 375 187.499995" height="250" preserveAspectRatio="xMidYMid meet" version="1.2"><defs><clipPath id="6b921a44da"><path d="M 6.371094 39.496094 L 98.476562 39.496094 L 98.476562 132.914062 L 6.371094 132.914062 Z M 6.371094 39.496094 "/></clipPath></defs><g id="f53b874a5b"><g style="fill:#000000;fill-opacity:1;"><g transform="translate(108.202369, 116.344078)"><path style="stroke:none" d="M 22.78125 1.375 C 19.425781 1.375 16.507812 0.925781 14.03125 0.03125 C 11.550781 -0.851562 9.503906 -2.050781 7.890625 -3.5625 C 6.273438 -5.070312 5.070312 -6.773438 4.28125 -8.671875 C 3.5 -10.566406 3.109375 -12.523438 3.109375 -14.546875 L 13.4375 -14.5 C 13.519531 -12.425781 14.347656 -10.679688 15.921875 -9.265625 C 17.492188 -7.859375 19.804688 -7.15625 22.859375 -7.15625 C 25.648438 -7.15625 27.703125 -7.6875 29.015625 -8.75 C 30.335938 -9.820312 31 -11.21875 31 -12.9375 C 31 -14.25 30.628906 -15.273438 29.890625 -16.015625 C 29.148438 -16.753906 28.0625 -17.335938 26.625 -17.765625 C 25.1875 -18.203125 23.425781 -18.566406 21.34375 -18.859375 C 19.15625 -19.148438 17.070312 -19.609375 15.09375 -20.234375 C 13.125 -20.859375 11.382812 -21.71875 9.875 -22.8125 C 8.363281 -23.914062 7.171875 -25.296875 6.296875 -26.953125 C 5.421875 -28.617188 4.984375 -30.632812 4.984375 -33 C 4.984375 -35.820312 5.640625 -38.285156 6.953125 -40.390625 C 8.273438 -42.492188 10.21875 -44.140625 12.78125 -45.328125 C 15.351562 -46.515625 18.488281 -47.109375 22.1875 -47.109375 C 25.863281 -47.109375 29.085938 -46.488281 31.859375 -45.25 C 34.640625 -44.019531 36.800781 -42.300781 38.34375 -40.09375 C 39.882812 -37.882812 40.65625 -35.328125 40.65625 -32.421875 L 30.109375 -32.515625 C 29.992188 -34.203125 29.273438 -35.585938 27.953125 -36.671875 C 26.628906 -37.753906 24.722656 -38.296875 22.234375 -38.296875 C 19.921875 -38.296875 18.226562 -37.796875 17.15625 -36.796875 C 16.09375 -35.804688 15.5625 -34.613281 15.5625 -33.21875 C 15.5625 -32.09375 15.8125 -31.179688 16.3125 -30.484375 C 16.820312 -29.796875 17.765625 -29.21875 19.140625 -28.75 C 20.523438 -28.289062 22.519531 -27.851562 25.125 -27.4375 C 27.5 -27.082031 29.707031 -26.609375 31.75 -26.015625 C 33.800781 -25.421875 35.585938 -24.613281 37.109375 -23.59375 C 38.640625 -22.570312 39.832031 -21.253906 40.6875 -19.640625 C 41.550781 -18.023438 41.984375 -16 41.984375 -13.5625 C 41.984375 -10.21875 41.144531 -7.4375 39.46875 -5.21875 C 37.800781 -3.007812 35.519531 -1.359375 32.625 -0.265625 C 29.726562 0.828125 26.445312 1.375 22.78125 1.375 Z M 22.78125 1.375 "/></g></g><g style="fill:#000000;fill-opacity:1;"><g transform="translate(146.751539, 116.344078)"><path style="stroke:none" d="M 62.359375 -47.109375 C 68.109375 -47.109375 72.40625 -45.15625 75.25 -41.25 C 78.101562 -37.351562 79.53125 -31.816406 79.53125 -24.640625 L 79.53125 0 L 68.90625 0 L 68.90625 -24.421875 C 68.90625 -28.929688 68.035156 -32.1875 66.296875 -34.1875 C 64.554688 -36.1875 62.207031 -37.1875 59.25 -37.1875 C 57.351562 -37.1875 55.554688 -36.609375 53.859375 -35.453125 C 52.171875 -34.296875 50.804688 -32.675781 49.765625 -30.59375 C 48.734375 -28.519531 48.21875 -26.109375 48.21875 -23.359375 L 48.21875 0 L 37.578125 0 L 37.578125 -24.421875 C 37.578125 -28.929688 36.707031 -32.1875 34.96875 -34.1875 C 33.238281 -36.1875 30.910156 -37.1875 27.984375 -37.1875 C 26.054688 -37.1875 24.253906 -36.609375 22.578125 -35.453125 C 20.898438 -34.296875 19.539062 -32.675781 18.5 -30.59375 C 17.46875 -28.519531 16.953125 -26.109375 16.953125 -23.359375 L 16.953125 0 L 6.3125 0 L 6.3125 -45.71875 L 16.375 -45.71875 L 16.5 -38.609375 C 17.300781 -40.234375 18.410156 -41.679688 19.828125 -42.953125 C 21.253906 -44.234375 22.921875 -45.242188 24.828125 -45.984375 C 26.742188 -46.734375 28.832031 -47.109375 31.09375 -47.109375 C 34.914062 -47.109375 38.09375 -46.222656 40.625 -44.453125 C 43.164062 -42.691406 45.070312 -40.132812 46.34375 -36.78125 C 48.300781 -40.3125 50.644531 -42.914062 53.375 -44.59375 C 56.101562 -46.269531 59.097656 -47.109375 62.359375 -47.109375 Z M 62.359375 -47.109375 "/></g></g><g style="fill:#000000;fill-opacity:1;"><g transform="translate(226.215492, 116.344078)"><path style="stroke:none" d="M 24.59375 1.375 C 21.507812 1.375 18.65625 0.753906 16.03125 -0.484375 C 13.40625 -1.734375 11.117188 -3.46875 9.171875 -5.6875 C 7.234375 -7.914062 5.726562 -10.5 4.65625 -13.4375 C 3.59375 -16.375 3.0625 -19.515625 3.0625 -22.859375 C 3.0625 -26.210938 3.601562 -29.347656 4.6875 -32.265625 C 5.769531 -35.191406 7.28125 -37.765625 9.21875 -39.984375 C 11.164062 -42.210938 13.441406 -43.957031 16.046875 -45.21875 C 18.660156 -46.476562 21.492188 -47.109375 24.546875 -47.109375 C 28.285156 -47.109375 31.609375 -46.296875 34.515625 -44.671875 C 37.421875 -43.054688 39.597656 -40.828125 41.046875 -37.984375 L 41.046875 -45.71875 L 51.28125 -45.71875 L 51.28125 0 L 41.046875 0 L 41.046875 -7.6875 C 39.566406 -4.84375 37.378906 -2.617188 34.484375 -1.015625 C 31.597656 0.578125 28.300781 1.375 24.59375 1.375 Z M 27.171875 -8.578125 C 29.046875 -8.578125 30.796875 -8.941406 32.421875 -9.671875 C 34.054688 -10.398438 35.488281 -11.410156 36.71875 -12.703125 C 37.945312 -13.992188 38.898438 -15.503906 39.578125 -17.234375 C 40.265625 -18.972656 40.609375 -20.847656 40.609375 -22.859375 C 40.609375 -24.847656 40.257812 -26.707031 39.5625 -28.4375 C 38.863281 -30.175781 37.90625 -31.695312 36.6875 -33 C 35.476562 -34.300781 34.054688 -35.316406 32.421875 -36.046875 C 30.796875 -36.773438 29.046875 -37.140625 27.171875 -37.140625 C 24.710938 -37.140625 22.46875 -36.546875 20.4375 -35.359375 C 18.40625 -34.171875 16.78125 -32.507812 15.5625 -30.375 C 14.351562 -28.238281 13.75 -25.734375 13.75 -22.859375 C 13.75 -19.898438 14.363281 -17.351562 15.59375 -15.21875 C 16.820312 -13.082031 18.457031 -11.441406 20.5 -10.296875 C 22.550781 -9.148438 24.773438 -8.578125 27.171875 -8.578125 Z M 27.171875 -8.578125 "/></g></g><g style="fill:#000000;fill-opacity:1;"><g transform="translate(277.79513, 116.344078)"><path style="stroke:none" d="M 22.78125 1.375 C 19.425781 1.375 16.507812 0.925781 14.03125 0.03125 C 11.550781 -0.851562 9.503906 -2.050781 7.890625 -3.5625 C 6.273438 -5.070312 5.070312 -6.773438 4.28125 -8.671875 C 3.5 -10.566406 3.109375 -12.523438 3.109375 -14.546875 L 13.4375 -14.5 C 13.519531 -12.425781 14.347656 -10.679688 15.921875 -9.265625 C 17.492188 -7.859375 19.804688 -7.15625 22.859375 -7.15625 C 25.648438 -7.15625 27.703125 -7.6875 29.015625 -8.75 C 30.335938 -9.820312 31 -11.21875 31 -12.9375 C 31 -14.25 30.628906 -15.273438 29.890625 -16.015625 C 29.148438 -16.753906 28.0625 -17.335938 26.625 -17.765625 C 25.1875 -18.203125 23.425781 -18.566406 21.34375 -18.859375 C 19.15625 -19.148438 17.070312 -19.609375 15.09375 -20.234375 C 13.125 -20.859375 11.382812 -21.71875 9.875 -22.8125 C 8.363281 -23.914062 7.171875 -25.296875 6.296875 -26.953125 C 5.421875 -28.617188 4.984375 -30.632812 4.984375 -33 C 4.984375 -35.820312 5.640625 -38.285156 6.953125 -40.390625 C 8.273438 -42.492188 10.21875 -44.140625 12.78125 -45.328125 C 15.351562 -46.515625 18.488281 -47.109375 22.1875 -47.109375 C 25.863281 -47.109375 29.085938 -46.488281 31.859375 -45.25 C 34.640625 -44.019531 36.800781 -42.300781 38.34375 -40.09375 C 39.882812 -37.882812 40.65625 -35.328125 40.65625 -32.421875 L 30.109375 -32.515625 C 29.992188 -34.203125 29.273438 -35.585938 27.953125 -36.671875 C 26.628906 -37.753906 24.722656 -38.296875 22.234375 -38.296875 C 19.921875 -38.296875 18.226562 -37.796875 17.15625 -36.796875 C 16.09375 -35.804688 15.5625 -34.613281 15.5625 -33.21875 C 15.5625 -32.09375 15.8125 -31.179688 16.3125 -30.484375 C 16.820312 -29.796875 17.765625 -29.21875 19.140625 -28.75 C 20.523438 -28.289062 22.519531 -27.851562 25.125 -27.4375 C 27.5 -27.082031 29.707031 -26.609375 31.75 -26.015625 C 33.800781 -25.421875 35.585938 -24.613281 37.109375 -23.59375 C 38.640625 -22.570312 39.832031 -21.253906 40.6875 -19.640625 C 41.550781 -18.023438 41.984375 -16 41.984375 -13.5625 C 41.984375 -10.21875 41.144531 -7.4375 39.46875 -5.21875 C 37.800781 -3.007812 35.519531 -1.359375 32.625 -0.265625 C 29.726562 0.828125 26.445312 1.375 22.78125 1.375 Z M 22.78125 1.375 "/></g></g><g style="fill:#000000;fill-opacity:1;"><g transform="translate(316.3443, 116.344078)"><path style="stroke:none" d="M 17.078125 0 L 6.3125 0 L 6.3125 -62.625 L 17.078125 -62.625 L 17.078125 -43.984375 L 16.8125 -38.875 C 18.238281 -41.363281 20.273438 -43.359375 22.921875 -44.859375 C 25.578125 -46.359375 28.65625 -47.109375 32.15625 -47.109375 C 38.289062 -47.109375 42.882812 -45.15625 45.9375 -41.25 C 49 -37.351562 50.53125 -31.816406 50.53125 -24.640625 L 50.53125 0 L 39.765625 0 L 39.765625 -24.421875 C 39.765625 -28.953125 38.816406 -32.210938 36.921875 -34.203125 C 35.023438 -36.191406 32.441406 -37.1875 29.171875 -37.1875 C 27.609375 -37.1875 26.097656 -36.851562 24.640625 -36.1875 C 23.191406 -35.519531 21.894531 -34.578125 20.75 -33.359375 C 19.601562 -32.140625 18.703125 -30.675781 18.046875 -28.96875 C 17.398438 -27.269531 17.078125 -25.398438 17.078125 -23.359375 Z M 17.078125 0 "/></g></g><path style=" stroke:none;fill-rule:nonzero;fill:#000000;fill-opacity:1;" d="M 62.746094 86.203125 C 62.746094 86.933594 62.675781 87.65625 62.53125 88.371094 C 62.390625 89.085938 62.179688 89.78125 61.898438 90.457031 C 61.621094 91.132812 61.277344 91.773438 60.871094 92.378906 C 60.464844 92.984375 60.003906 93.546875 59.488281 94.0625 C 58.972656 94.578125 58.410156 95.039062 57.804688 95.445312 C 57.199219 95.851562 56.558594 96.191406 55.882812 96.472656 C 55.207031 96.75 54.515625 96.960938 53.796875 97.105469 C 53.082031 97.246094 52.359375 97.320312 51.628906 97.320312 C 50.898438 97.320312 50.175781 97.246094 49.460938 97.105469 C 48.746094 96.960938 48.050781 96.75 47.375 96.472656 C 46.703125 96.191406 46.0625 95.851562 45.453125 95.445312 C 44.847656 95.039062 44.285156 94.578125 43.769531 94.0625 C 43.253906 93.546875 42.792969 92.984375 42.386719 92.378906 C 41.980469 91.773438 41.640625 91.132812 41.359375 90.457031 C 41.082031 89.78125 40.871094 89.085938 40.726562 88.371094 C 40.585938 87.65625 40.515625 86.933594 40.515625 86.203125 C 40.515625 85.472656 40.585938 84.75 40.726562 84.035156 C 40.871094 83.320312 41.082031 82.625 41.359375 81.949219 C 41.640625 81.273438 41.980469 80.632812 42.386719 80.027344 C 42.792969 79.421875 43.253906 78.859375 43.769531 78.34375 C 44.285156 77.828125 44.847656 77.367188 45.453125 76.960938 C 46.0625 76.554688 46.703125 76.214844 47.375 75.933594 C 48.050781 75.65625 48.746094 75.445312 49.460938 75.300781 C 50.175781 75.160156 50.898438 75.085938 51.628906 75.085938 C 52.359375 75.085938 53.082031 75.160156 53.796875 75.300781 C 54.515625 75.445312 55.207031 75.65625 55.882812 75.933594 C 56.558594 76.214844 57.199219 76.554688 57.804688 76.960938 C 58.410156 77.367188 58.972656 77.828125 59.488281 78.34375 C 60.003906 78.859375 60.464844 79.421875 60.871094 80.027344 C 61.277344 80.632812 61.621094 81.273438 61.898438 81.949219 C 62.179688 82.625 62.390625 83.320312 62.53125 84.035156 C 62.675781 84.75 62.746094 85.472656 62.746094 86.203125 Z M 62.746094 86.203125 "/><g clip-rule="nonzero" clip-path="url(#6b921a44da)"><path style=" stroke:none;fill-rule:nonzero;fill:#000000;fill-opacity:1;" d="M 51.628906 39.527344 C 29.878906 39.527344 11.605469 54.402344 6.421875 74.535156 C 6.375 74.714844 6.347656 74.898438 6.34375 75.085938 C 6.34375 76.308594 7.339844 77.3125 8.566406 77.3125 L 27.390625 77.3125 C 27.828125 77.3125 28.226562 77.195312 28.59375 76.957031 C 28.957031 76.722656 29.230469 76.40625 29.40625 76.007812 C 29.40625 76.007812 29.433594 75.953125 29.449219 75.925781 C 33.328125 67.554688 41.800781 61.746094 51.636719 61.746094 C 65.144531 61.746094 76.09375 72.6875 76.09375 86.195312 C 76.09375 99.699219 65.148438 110.644531 51.640625 110.644531 C 41.808594 110.644531 33.335938 104.835938 29.453125 96.464844 C 29.4375 96.433594 29.410156 96.382812 29.410156 96.382812 C 29.050781 95.59375 28.261719 95.078125 27.394531 95.078125 L 8.570312 95.078125 C 7.34375 95.078125 6.347656 96.074219 6.347656 97.300781 C 6.351562 97.488281 6.375 97.675781 6.425781 97.855469 C 11.609375 117.984375 29.886719 132.863281 51.632812 132.863281 C 77.414062 132.859375 98.351562 111.964844 98.351562 86.1875 C 98.351562 60.410156 77.453125 39.507812 51.675781 39.507812 Z M 51.628906 39.527344 "/></g></g></svg>