<svg xmlns="http://www.w3.org/2000/svg" xmlns:xlink="http://www.w3.org/1999/xlink" width="500" zoomAndPan="magnify" viewBox="0 0 375 374.999991" height="500" preserveAspectRatio="xMidYMid meet" version="1.2"><defs><clipPath id="549f0c0d67"><path d="M 84.253906 156.714844 L 136.753906 156.714844 L 136.753906 209.964844 L 84.253906 209.964844 Z M 84.253906 156.714844 "/></clipPath></defs><g id="7abc5e6a0d"><rect x="0" width="375" y="0" height="374.999991" style="fill:#ffffff;fill-opacity:1;stroke:none;"/><rect x="0" width="375" y="0" height="374.999991" style="fill:#c1ff72;fill-opacity:1;stroke:none;"/><path style=" stroke:none;fill-rule:nonzero;fill:#000000;fill-opacity:1;" d="M 116.386719 183.339844 C 116.386719 183.757812 116.347656 184.167969 116.265625 184.578125 C 116.183594 184.984375 116.0625 185.378906 115.90625 185.765625 C 115.746094 186.148438 115.550781 186.515625 115.320312 186.859375 C 115.089844 187.207031 114.824219 187.527344 114.53125 187.820312 C 114.238281 188.113281 113.917969 188.378906 113.570312 188.609375 C 113.226562 188.839844 112.859375 189.035156 112.476562 189.195312 C 112.089844 189.351562 111.695312 189.472656 111.289062 189.554688 C 110.878906 189.636719 110.46875 189.675781 110.050781 189.675781 C 109.636719 189.675781 109.222656 189.636719 108.816406 189.554688 C 108.40625 189.472656 108.011719 189.351562 107.625 189.195312 C 107.242188 189.035156 106.878906 188.839844 106.53125 188.609375 C 106.183594 188.378906 105.867188 188.113281 105.570312 187.820312 C 105.277344 187.527344 105.015625 187.207031 104.78125 186.859375 C 104.550781 186.515625 104.355469 186.148438 104.199219 185.765625 C 104.039062 185.378906 103.917969 184.984375 103.835938 184.578125 C 103.757812 184.167969 103.714844 183.757812 103.714844 183.339844 C 103.714844 182.925781 103.757812 182.511719 103.835938 182.105469 C 103.917969 181.695312 104.039062 181.300781 104.199219 180.914062 C 104.355469 180.53125 104.550781 180.164062 104.78125 179.820312 C 105.015625 179.472656 105.277344 179.152344 105.570312 178.859375 C 105.867188 178.566406 106.183594 178.304688 106.53125 178.070312 C 106.878906 177.839844 107.242188 177.644531 107.625 177.488281 C 108.011719 177.328125 108.40625 177.207031 108.816406 177.125 C 109.222656 177.042969 109.636719 177.003906 110.050781 177.003906 C 110.46875 177.003906 110.878906 177.042969 111.289062 177.125 C 111.695312 177.207031 112.089844 177.328125 112.476562 177.488281 C 112.859375 177.644531 113.226562 177.839844 113.570312 178.070312 C 113.917969 178.304688 114.238281 178.566406 114.53125 178.859375 C 114.824219 179.152344 115.089844 179.472656 115.320312 179.820312 C 115.550781 180.164062 115.746094 180.53125 115.90625 180.914062 C 116.0625 181.300781 116.183594 181.695312 116.265625 182.105469 C 116.347656 182.511719 116.386719 182.925781 116.386719 183.339844 Z M 116.386719 183.339844 "/><g clip-rule="nonzero" clip-path="url(#549f0c0d67)"><path style=" stroke:none;fill-rule:nonzero;fill:#000000;fill-opacity:1;" d="M 110.050781 156.734375 C 97.652344 156.734375 87.238281 165.214844 84.28125 176.6875 C 84.253906 176.792969 84.238281 176.898438 84.238281 177.003906 C 84.238281 177.699219 84.804688 178.269531 85.503906 178.269531 L 96.234375 178.269531 C 96.484375 178.273438 96.710938 178.207031 96.917969 178.070312 C 97.128906 177.9375 97.28125 177.753906 97.382812 177.527344 C 97.382812 177.527344 97.398438 177.5 97.40625 177.480469 C 99.617188 172.710938 104.449219 169.398438 110.054688 169.398438 C 117.753906 169.398438 123.996094 175.636719 123.996094 183.335938 C 123.996094 191.035156 117.757812 197.273438 110.058594 197.273438 C 104.453125 197.273438 99.625 193.960938 97.410156 189.1875 C 97.402344 189.171875 97.386719 189.140625 97.386719 189.140625 C 97.183594 188.691406 96.730469 188.398438 96.238281 188.398438 L 85.507812 188.398438 C 84.808594 188.398438 84.242188 188.964844 84.242188 189.667969 C 84.242188 189.773438 84.257812 189.878906 84.285156 189.984375 C 87.238281 201.457031 97.65625 209.9375 110.054688 209.9375 C 124.75 209.933594 136.683594 198.023438 136.683594 183.332031 C 136.683594 168.636719 124.769531 156.722656 110.078125 156.722656 Z M 110.050781 156.734375 "/></g><g style="fill:#000000;fill-opacity:1;"><g transform="translate(142.298902, 200.521151)"><path style="stroke:none" d="M 12.984375 0.78125 C 11.066406 0.78125 9.398438 0.523438 7.984375 0.015625 C 6.578125 -0.484375 5.414062 -1.164062 4.5 -2.03125 C 3.582031 -2.894531 2.898438 -3.863281 2.453125 -4.9375 C 2.003906 -6.019531 1.78125 -7.140625 1.78125 -8.296875 L 7.65625 -8.265625 C 7.707031 -7.078125 8.179688 -6.082031 9.078125 -5.28125 C 9.972656 -4.476562 11.289062 -4.078125 13.03125 -4.078125 C 14.625 -4.078125 15.796875 -4.378906 16.546875 -4.984375 C 17.296875 -5.597656 17.671875 -6.394531 17.671875 -7.375 C 17.671875 -8.125 17.457031 -8.707031 17.03125 -9.125 C 16.613281 -9.550781 15.992188 -9.882812 15.171875 -10.125 C 14.347656 -10.375 13.347656 -10.582031 12.171875 -10.75 C 10.921875 -10.914062 9.734375 -11.175781 8.609375 -11.53125 C 7.484375 -11.882812 6.488281 -12.375 5.625 -13 C 4.757812 -13.625 4.078125 -14.410156 3.578125 -15.359375 C 3.085938 -16.304688 2.84375 -17.457031 2.84375 -18.8125 C 2.84375 -20.414062 3.21875 -21.816406 3.96875 -23.015625 C 4.71875 -24.210938 5.820312 -25.148438 7.28125 -25.828125 C 8.75 -26.503906 10.539062 -26.84375 12.65625 -26.84375 C 14.75 -26.84375 16.582031 -26.492188 18.15625 -25.796875 C 19.738281 -25.097656 20.96875 -24.117188 21.84375 -22.859375 C 22.726562 -21.597656 23.171875 -20.140625 23.171875 -18.484375 L 17.15625 -18.53125 C 17.09375 -19.5 16.6875 -20.289062 15.9375 -20.90625 C 15.1875 -21.519531 14.097656 -21.828125 12.671875 -21.828125 C 11.359375 -21.828125 10.394531 -21.539062 9.78125 -20.96875 C 9.175781 -20.40625 8.875 -19.726562 8.875 -18.9375 C 8.875 -18.289062 9.015625 -17.769531 9.296875 -17.375 C 9.585938 -16.976562 10.125 -16.648438 10.90625 -16.390625 C 11.695312 -16.128906 12.835938 -15.878906 14.328125 -15.640625 C 15.679688 -15.441406 16.9375 -15.171875 18.09375 -14.828125 C 19.257812 -14.492188 20.28125 -14.035156 21.15625 -13.453125 C 22.03125 -12.867188 22.710938 -12.113281 23.203125 -11.1875 C 23.691406 -10.269531 23.9375 -9.117188 23.9375 -7.734375 C 23.9375 -5.828125 23.457031 -4.242188 22.5 -2.984375 C 21.539062 -1.722656 20.238281 -0.78125 18.59375 -0.15625 C 16.945312 0.46875 15.078125 0.78125 12.984375 0.78125 Z M 12.984375 0.78125 "/></g></g><g style="fill:#000000;fill-opacity:1;"><g transform="translate(164.272632, 200.521151)"><path style="stroke:none" d="M 35.546875 -26.84375 C 38.828125 -26.84375 41.273438 -25.734375 42.890625 -23.515625 C 44.515625 -21.296875 45.328125 -18.140625 45.328125 -14.046875 L 45.328125 0 L 39.265625 0 L 39.265625 -13.921875 C 39.265625 -16.484375 38.769531 -18.332031 37.78125 -19.46875 C 36.800781 -20.613281 35.460938 -21.1875 33.765625 -21.1875 C 32.679688 -21.1875 31.65625 -20.859375 30.6875 -20.203125 C 29.726562 -19.546875 28.953125 -18.625 28.359375 -17.4375 C 27.773438 -16.257812 27.484375 -14.882812 27.484375 -13.3125 L 27.484375 0 L 21.421875 0 L 21.421875 -13.921875 C 21.421875 -16.484375 20.925781 -18.332031 19.9375 -19.46875 C 18.945312 -20.613281 17.617188 -21.1875 15.953125 -21.1875 C 14.847656 -21.1875 13.816406 -20.859375 12.859375 -20.203125 C 11.910156 -19.546875 11.140625 -18.625 10.546875 -17.4375 C 9.953125 -16.257812 9.65625 -14.882812 9.65625 -13.3125 L 9.65625 0 L 3.59375 0 L 3.59375 -26.0625 L 9.328125 -26.0625 L 9.40625 -22 C 9.863281 -22.9375 10.5 -23.765625 11.3125 -24.484375 C 12.125 -25.210938 13.070312 -25.785156 14.15625 -26.203125 C 15.25 -26.628906 16.4375 -26.84375 17.71875 -26.84375 C 19.894531 -26.84375 21.707031 -26.335938 23.15625 -25.328125 C 24.601562 -24.328125 25.691406 -22.875 26.421875 -20.96875 C 27.535156 -22.976562 28.867188 -24.457031 30.421875 -25.40625 C 31.972656 -26.363281 33.679688 -26.84375 35.546875 -26.84375 Z M 35.546875 -26.84375 "/></g></g><g style="fill:#000000;fill-opacity:1;"><g transform="translate(209.568535, 200.521151)"><path style="stroke:none" d="M 14.015625 0.78125 C 12.265625 0.78125 10.640625 0.425781 9.140625 -0.28125 C 7.640625 -0.988281 6.335938 -1.972656 5.234375 -3.234375 C 4.128906 -4.503906 3.269531 -5.976562 2.65625 -7.65625 C 2.050781 -9.332031 1.75 -11.125 1.75 -13.03125 C 1.75 -14.9375 2.054688 -16.722656 2.671875 -18.390625 C 3.285156 -20.054688 4.144531 -21.519531 5.25 -22.78125 C 6.363281 -24.050781 7.664062 -25.046875 9.15625 -25.765625 C 10.644531 -26.484375 12.257812 -26.84375 14 -26.84375 C 16.125 -26.84375 18.015625 -26.378906 19.671875 -25.453125 C 21.328125 -24.535156 22.570312 -23.269531 23.40625 -21.65625 L 23.40625 -26.0625 L 29.234375 -26.0625 L 29.234375 0 L 23.40625 0 L 23.40625 -4.390625 C 22.550781 -2.765625 21.300781 -1.492188 19.65625 -0.578125 C 18.007812 0.328125 16.128906 0.78125 14.015625 0.78125 Z M 15.484375 -4.890625 C 16.554688 -4.890625 17.554688 -5.097656 18.484375 -5.515625 C 19.410156 -5.929688 20.222656 -6.503906 20.921875 -7.234375 C 21.628906 -7.972656 22.175781 -8.835938 22.5625 -9.828125 C 22.945312 -10.816406 23.140625 -11.882812 23.140625 -13.03125 C 23.140625 -14.164062 22.941406 -15.226562 22.546875 -16.21875 C 22.148438 -17.207031 21.601562 -18.070312 20.90625 -18.8125 C 20.21875 -19.550781 19.410156 -20.128906 18.484375 -20.546875 C 17.554688 -20.960938 16.554688 -21.171875 15.484375 -21.171875 C 14.085938 -21.171875 12.804688 -20.832031 11.640625 -20.15625 C 10.484375 -19.476562 9.554688 -18.53125 8.859375 -17.3125 C 8.171875 -16.09375 7.828125 -14.664062 7.828125 -13.03125 C 7.828125 -11.34375 8.175781 -9.890625 8.875 -8.671875 C 9.582031 -7.453125 10.519531 -6.515625 11.6875 -5.859375 C 12.851562 -5.210938 14.117188 -4.890625 15.484375 -4.890625 Z M 15.484375 -4.890625 "/></g></g><g style="fill:#000000;fill-opacity:1;"><g transform="translate(238.969871, 200.521151)"><path style="stroke:none" d="M 12.984375 0.78125 C 11.066406 0.78125 9.398438 0.523438 7.984375 0.015625 C 6.578125 -0.484375 5.414062 -1.164062 4.5 -2.03125 C 3.582031 -2.894531 2.898438 -3.863281 2.453125 -4.9375 C 2.003906 -6.019531 1.78125 -7.140625 1.78125 -8.296875 L 7.65625 -8.265625 C 7.707031 -7.078125 8.179688 -6.082031 9.078125 -5.28125 C 9.972656 -4.476562 11.289062 -4.078125 13.03125 -4.078125 C 14.625 -4.078125 15.796875 -4.378906 16.546875 -4.984375 C 17.296875 -5.597656 17.671875 -6.394531 17.671875 -7.375 C 17.671875 -8.125 17.457031 -8.707031 17.03125 -9.125 C 16.613281 -9.550781 15.992188 -9.882812 15.171875 -10.125 C 14.347656 -10.375 13.347656 -10.582031 12.171875 -10.75 C 10.921875 -10.914062 9.734375 -11.175781 8.609375 -11.53125 C 7.484375 -11.882812 6.488281 -12.375 5.625 -13 C 4.757812 -13.625 4.078125 -14.410156 3.578125 -15.359375 C 3.085938 -16.304688 2.84375 -17.457031 2.84375 -18.8125 C 2.84375 -20.414062 3.21875 -21.816406 3.96875 -23.015625 C 4.71875 -24.210938 5.820312 -25.148438 7.28125 -25.828125 C 8.75 -26.503906 10.539062 -26.84375 12.65625 -26.84375 C 14.75 -26.84375 16.582031 -26.492188 18.15625 -25.796875 C 19.738281 -25.097656 20.96875 -24.117188 21.84375 -22.859375 C 22.726562 -21.597656 23.171875 -20.140625 23.171875 -18.484375 L 17.15625 -18.53125 C 17.09375 -19.5 16.6875 -20.289062 15.9375 -20.90625 C 15.1875 -21.519531 14.097656 -21.828125 12.671875 -21.828125 C 11.359375 -21.828125 10.394531 -21.539062 9.78125 -20.96875 C 9.175781 -20.40625 8.875 -19.726562 8.875 -18.9375 C 8.875 -18.289062 9.015625 -17.769531 9.296875 -17.375 C 9.585938 -16.976562 10.125 -16.648438 10.90625 -16.390625 C 11.695312 -16.128906 12.835938 -15.878906 14.328125 -15.640625 C 15.679688 -15.441406 16.9375 -15.171875 18.09375 -14.828125 C 19.257812 -14.492188 20.28125 -14.035156 21.15625 -13.453125 C 22.03125 -12.867188 22.710938 -12.113281 23.203125 -11.1875 C 23.691406 -10.269531 23.9375 -9.117188 23.9375 -7.734375 C 23.9375 -5.828125 23.457031 -4.242188 22.5 -2.984375 C 21.539062 -1.722656 20.238281 -0.78125 18.59375 -0.15625 C 16.945312 0.46875 15.078125 0.78125 12.984375 0.78125 Z M 12.984375 0.78125 "/></g></g><g style="fill:#000000;fill-opacity:1;"><g transform="translate(260.943601, 200.521151)"><path style="stroke:none" d="M 9.734375 0 L 3.59375 0 L 3.59375 -35.703125 L 9.734375 -35.703125 L 9.734375 -25.078125 L 9.578125 -22.15625 C 10.390625 -23.570312 11.550781 -24.707031 13.0625 -25.5625 C 14.582031 -26.414062 16.335938 -26.84375 18.328125 -26.84375 C 21.828125 -26.84375 24.445312 -25.734375 26.1875 -23.515625 C 27.925781 -21.296875 28.796875 -18.140625 28.796875 -14.046875 L 28.796875 0 L 22.671875 0 L 22.671875 -13.921875 C 22.671875 -16.503906 22.128906 -18.359375 21.046875 -19.484375 C 19.960938 -20.617188 18.488281 -21.1875 16.625 -21.1875 C 15.726562 -21.1875 14.863281 -20.992188 14.03125 -20.609375 C 13.207031 -20.234375 12.46875 -19.695312 11.8125 -19 C 11.164062 -18.3125 10.65625 -17.484375 10.28125 -16.515625 C 9.914062 -15.546875 9.734375 -14.476562 9.734375 -13.3125 Z M 9.734375 0 "/></g></g></g></svg>