<svg xmlns="http://www.w3.org/2000/svg" xmlns:xlink="http://www.w3.org/1999/xlink" width="500" zoomAndPan="magnify" viewBox="0 0 375 187.499995" height="250" preserveAspectRatio="xMidYMid meet" version="1.2"><defs><clipPath id="21741a02e4"><path d="M 0.5 0 L 374.5 0 L 374.5 187 L 0.5 187 Z M 0.5 0 "/></clipPath><clipPath id="4c83947dec"><path d="M 3.582031 38.664062 L 97.460938 38.664062 L 97.460938 134 L 3.582031 134 Z M 3.582031 38.664062 "/></clipPath></defs><g id="cf5dcedda5"><g clip-rule="nonzero" clip-path="url(#21741a02e4)"><path style=" stroke:none;fill-rule:nonzero;fill:#ffffff;fill-opacity:1;" d="M 0.5 0 L 374.5 0 L 374.5 187 L 0.5 187 Z M 0.5 0 "/><path style=" stroke:none;fill-rule:nonzero;fill:#c1ff72;fill-opacity:1;" d="M 0.5 0 L 374.5 0 L 374.5 187 L 0.5 187 Z M 0.5 0 "/></g><path style=" stroke:none;fill-rule:nonzero;fill:#000000;fill-opacity:1;" d="M 61.066406 86.285156 C 61.066406 87.03125 60.996094 87.769531 60.851562 88.5 C 60.707031 89.226562 60.492188 89.9375 60.207031 90.625 C 59.921875 91.3125 59.570312 91.964844 59.15625 92.585938 C 58.746094 93.203125 58.273438 93.777344 57.75 94.300781 C 57.222656 94.828125 56.648438 95.296875 56.03125 95.710938 C 55.410156 96.125 54.757812 96.472656 54.070312 96.757812 C 53.382812 97.042969 52.675781 97.257812 51.945312 97.402344 C 51.214844 97.550781 50.476562 97.621094 49.734375 97.621094 C 48.988281 97.621094 48.25 97.550781 47.523438 97.402344 C 46.792969 97.257812 46.082031 97.042969 45.394531 96.757812 C 44.707031 96.472656 44.054688 96.125 43.433594 95.710938 C 42.816406 95.296875 42.242188 94.828125 41.71875 94.300781 C 41.191406 93.777344 40.722656 93.203125 40.308594 92.585938 C 39.894531 91.964844 39.546875 91.3125 39.261719 90.625 C 38.976562 89.9375 38.761719 89.226562 38.617188 88.5 C 38.46875 87.769531 38.398438 87.03125 38.398438 86.285156 C 38.398438 85.542969 38.46875 84.804688 38.617188 84.074219 C 38.761719 83.34375 38.976562 82.636719 39.261719 81.949219 C 39.546875 81.261719 39.894531 80.609375 40.308594 79.988281 C 40.722656 79.371094 41.191406 78.796875 41.71875 78.273438 C 42.242188 77.746094 42.816406 77.273438 43.433594 76.863281 C 44.054688 76.449219 44.707031 76.097656 45.394531 75.8125 C 46.082031 75.53125 46.792969 75.316406 47.523438 75.167969 C 48.25 75.023438 48.988281 74.953125 49.734375 74.953125 C 50.476562 74.953125 51.214844 75.023438 51.945312 75.167969 C 52.675781 75.316406 53.382812 75.53125 54.070312 75.8125 C 54.757812 76.097656 55.410156 76.449219 56.03125 76.863281 C 56.648438 77.273438 57.222656 77.746094 57.75 78.273438 C 58.273438 78.796875 58.746094 79.371094 59.15625 79.988281 C 59.570312 80.609375 59.921875 81.261719 60.207031 81.949219 C 60.492188 82.636719 60.707031 83.34375 60.851562 84.074219 C 60.996094 84.804688 61.066406 85.542969 61.066406 86.285156 Z M 61.066406 86.285156 "/><g clip-rule="nonzero" clip-path="url(#4c83947dec)"><path style=" stroke:none;fill-rule:nonzero;fill:#000000;fill-opacity:1;" d="M 49.734375 38.6875 C 27.550781 38.6875 8.917969 53.859375 3.632812 74.386719 C 3.582031 74.570312 3.554688 74.761719 3.554688 74.953125 C 3.554688 76.195312 4.566406 77.21875 5.820312 77.21875 L 25.015625 77.21875 C 25.460938 77.21875 25.867188 77.101562 26.242188 76.859375 C 26.613281 76.617188 26.890625 76.296875 27.070312 75.890625 C 27.070312 75.890625 27.101562 75.835938 27.113281 75.808594 C 31.070312 67.269531 39.710938 61.34375 49.742188 61.34375 C 63.515625 61.34375 74.679688 72.507812 74.679688 86.277344 C 74.679688 100.050781 63.519531 111.210938 49.746094 111.210938 C 39.71875 111.210938 31.078125 105.285156 27.117188 96.75 C 27.105469 96.722656 27.074219 96.667969 27.074219 96.667969 C 26.710938 95.863281 25.902344 95.339844 25.019531 95.339844 L 5.824219 95.339844 C 4.570312 95.339844 3.558594 96.351562 3.558594 97.605469 C 3.558594 97.796875 3.585938 97.984375 3.636719 98.171875 C 8.921875 118.699219 27.5625 133.871094 49.738281 133.871094 C 76.027344 133.867188 97.378906 112.558594 97.378906 86.269531 C 97.378906 59.984375 76.066406 38.671875 49.777344 38.671875 Z M 49.734375 38.6875 "/></g><g style="fill:#000000;fill-opacity:1;"><g transform="translate(106.98044, 116.696071)"><path style="stroke:none" d="M 23.125 1.40625 C 19.71875 1.40625 16.757812 0.953125 14.25 0.046875 C 11.738281 -0.859375 9.660156 -2.078125 8.015625 -3.609375 C 6.378906 -5.148438 5.160156 -6.882812 4.359375 -8.8125 C 3.554688 -10.738281 3.15625 -12.722656 3.15625 -14.765625 L 13.640625 -14.71875 C 13.734375 -12.613281 14.578125 -10.84375 16.171875 -9.40625 C 17.765625 -7.976562 20.113281 -7.265625 23.21875 -7.265625 C 26.050781 -7.265625 28.132812 -7.804688 29.46875 -8.890625 C 30.8125 -9.984375 31.484375 -11.398438 31.484375 -13.140625 C 31.484375 -14.460938 31.101562 -15.5 30.34375 -16.25 C 29.59375 -17.007812 28.488281 -17.609375 27.03125 -18.046875 C 25.570312 -18.484375 23.789062 -18.851562 21.6875 -19.15625 C 19.457031 -19.457031 17.335938 -19.921875 15.328125 -20.546875 C 13.328125 -21.179688 11.554688 -22.054688 10.015625 -23.171875 C 8.484375 -24.285156 7.273438 -25.6875 6.390625 -27.375 C 5.503906 -29.0625 5.0625 -31.109375 5.0625 -33.515625 C 5.0625 -36.367188 5.726562 -38.863281 7.0625 -41 C 8.40625 -43.144531 10.378906 -44.816406 12.984375 -46.015625 C 15.585938 -47.222656 18.769531 -47.828125 22.53125 -47.828125 C 26.269531 -47.828125 29.546875 -47.203125 32.359375 -45.953125 C 35.171875 -44.703125 37.359375 -42.957031 38.921875 -40.71875 C 40.492188 -38.476562 41.28125 -35.878906 41.28125 -32.921875 L 30.578125 -33.015625 C 30.453125 -34.734375 29.71875 -36.140625 28.375 -37.234375 C 27.039062 -38.335938 25.109375 -38.890625 22.578125 -38.890625 C 20.234375 -38.890625 18.519531 -38.382812 17.4375 -37.375 C 16.351562 -36.363281 15.8125 -35.148438 15.8125 -33.734375 C 15.8125 -32.585938 16.066406 -31.660156 16.578125 -30.953125 C 17.085938 -30.253906 18.039062 -29.671875 19.4375 -29.203125 C 20.84375 -28.734375 22.867188 -28.289062 25.515625 -27.875 C 27.921875 -27.507812 30.160156 -27.023438 32.234375 -26.421875 C 34.316406 -25.816406 36.132812 -24.992188 37.6875 -23.953125 C 39.238281 -22.921875 40.453125 -21.582031 41.328125 -19.9375 C 42.203125 -18.300781 42.640625 -16.25 42.640625 -13.78125 C 42.640625 -10.375 41.785156 -7.546875 40.078125 -5.296875 C 38.378906 -3.054688 36.0625 -1.378906 33.125 -0.265625 C 30.1875 0.847656 26.851562 1.40625 23.125 1.40625 Z M 23.125 1.40625 "/></g></g><g style="fill:#000000;fill-opacity:1;"><g transform="translate(146.123623, 116.696071)"><path style="stroke:none" d="M 63.328125 -47.828125 C 69.160156 -47.828125 73.519531 -45.847656 76.40625 -41.890625 C 79.300781 -37.929688 80.75 -32.304688 80.75 -25.015625 L 80.75 0 L 69.96875 0 L 69.96875 -24.796875 C 69.96875 -29.367188 69.082031 -32.671875 67.3125 -34.703125 C 65.550781 -36.742188 63.164062 -37.765625 60.15625 -37.765625 C 58.226562 -37.765625 56.40625 -37.175781 54.6875 -36 C 52.976562 -34.820312 51.59375 -33.175781 50.53125 -31.0625 C 49.476562 -28.957031 48.953125 -26.507812 48.953125 -23.71875 L 48.953125 0 L 38.171875 0 L 38.171875 -24.796875 C 38.171875 -29.367188 37.285156 -32.671875 35.515625 -34.703125 C 33.753906 -36.742188 31.382812 -37.765625 28.40625 -37.765625 C 26.445312 -37.765625 24.617188 -37.175781 22.921875 -36 C 21.222656 -34.820312 19.84375 -33.175781 18.78125 -31.0625 C 17.726562 -28.957031 17.203125 -26.507812 17.203125 -23.71875 L 17.203125 0 L 6.40625 0 L 6.40625 -46.4375 L 16.625 -46.4375 L 16.75 -39.203125 C 17.5625 -40.859375 18.691406 -42.332031 20.140625 -43.625 C 21.585938 -44.925781 23.28125 -45.953125 25.21875 -46.703125 C 27.164062 -47.453125 29.285156 -47.828125 31.578125 -47.828125 C 35.453125 -47.828125 38.675781 -46.929688 41.25 -45.140625 C 43.832031 -43.347656 45.769531 -40.753906 47.0625 -37.359375 C 49.050781 -40.941406 51.429688 -43.582031 54.203125 -45.28125 C 56.972656 -46.976562 60.015625 -47.828125 63.328125 -47.828125 Z M 63.328125 -47.828125 "/></g></g><g style="fill:#000000;fill-opacity:1;"><g transform="translate(226.812056, 116.696071)"><path style="stroke:none" d="M 24.984375 1.40625 C 21.847656 1.40625 18.945312 0.773438 16.28125 -0.484375 C 13.613281 -1.753906 11.296875 -3.519531 9.328125 -5.78125 C 7.359375 -8.039062 5.828125 -10.660156 4.734375 -13.640625 C 3.648438 -16.617188 3.109375 -19.8125 3.109375 -23.21875 C 3.109375 -26.613281 3.65625 -29.796875 4.75 -32.765625 C 5.851562 -35.734375 7.390625 -38.34375 9.359375 -40.59375 C 11.335938 -42.851562 13.648438 -44.625 16.296875 -45.90625 C 18.953125 -47.1875 21.832031 -47.828125 24.9375 -47.828125 C 28.726562 -47.828125 32.097656 -47.003906 35.046875 -45.359375 C 37.992188 -43.722656 40.207031 -41.460938 41.6875 -38.578125 L 41.6875 -46.4375 L 52.078125 -46.4375 L 52.078125 0 L 41.6875 0 L 41.6875 -7.8125 C 40.1875 -4.925781 37.96875 -2.664062 35.03125 -1.03125 C 32.09375 0.59375 28.742188 1.40625 24.984375 1.40625 Z M 27.59375 -8.71875 C 29.488281 -8.71875 31.265625 -9.085938 32.921875 -9.828125 C 34.578125 -10.566406 36.03125 -11.585938 37.28125 -12.890625 C 38.53125 -14.203125 39.5 -15.738281 40.1875 -17.5 C 40.882812 -19.257812 41.234375 -21.164062 41.234375 -23.21875 C 41.234375 -25.226562 40.878906 -27.113281 40.171875 -28.875 C 39.460938 -30.644531 38.488281 -32.191406 37.25 -33.515625 C 36.019531 -34.835938 34.578125 -35.867188 32.921875 -36.609375 C 31.265625 -37.347656 29.488281 -37.71875 27.59375 -37.71875 C 25.09375 -37.71875 22.8125 -37.113281 20.75 -35.90625 C 18.6875 -34.695312 17.035156 -33.007812 15.796875 -30.84375 C 14.566406 -28.675781 13.953125 -26.132812 13.953125 -23.21875 C 13.953125 -20.207031 14.578125 -17.613281 15.828125 -15.4375 C 17.078125 -13.269531 18.738281 -11.609375 20.8125 -10.453125 C 22.894531 -9.296875 25.15625 -8.71875 27.59375 -8.71875 Z M 27.59375 -8.71875 "/></g></g><g style="fill:#000000;fill-opacity:1;"><g transform="translate(279.186499, 116.696071)"><path style="stroke:none" d="M 23.125 1.40625 C 19.71875 1.40625 16.757812 0.953125 14.25 0.046875 C 11.738281 -0.859375 9.660156 -2.078125 8.015625 -3.609375 C 6.378906 -5.148438 5.160156 -6.882812 4.359375 -8.8125 C 3.554688 -10.738281 3.15625 -12.722656 3.15625 -14.765625 L 13.640625 -14.71875 C 13.734375 -12.613281 14.578125 -10.84375 16.171875 -9.40625 C 17.765625 -7.976562 20.113281 -7.265625 23.21875 -7.265625 C 26.050781 -7.265625 28.132812 -7.804688 29.46875 -8.890625 C 30.8125 -9.984375 31.484375 -11.398438 31.484375 -13.140625 C 31.484375 -14.460938 31.101562 -15.5 30.34375 -16.25 C 29.59375 -17.007812 28.488281 -17.609375 27.03125 -18.046875 C 25.570312 -18.484375 23.789062 -18.851562 21.6875 -19.15625 C 19.457031 -19.457031 17.335938 -19.921875 15.328125 -20.546875 C 13.328125 -21.179688 11.554688 -22.054688 10.015625 -23.171875 C 8.484375 -24.285156 7.273438 -25.6875 6.390625 -27.375 C 5.503906 -29.0625 5.0625 -31.109375 5.0625 -33.515625 C 5.0625 -36.367188 5.726562 -38.863281 7.0625 -41 C 8.40625 -43.144531 10.378906 -44.816406 12.984375 -46.015625 C 15.585938 -47.222656 18.769531 -47.828125 22.53125 -47.828125 C 26.269531 -47.828125 29.546875 -47.203125 32.359375 -45.953125 C 35.171875 -44.703125 37.359375 -42.957031 38.921875 -40.71875 C 40.492188 -38.476562 41.28125 -35.878906 41.28125 -32.921875 L 30.578125 -33.015625 C 30.453125 -34.734375 29.71875 -36.140625 28.375 -37.234375 C 27.039062 -38.335938 25.109375 -38.890625 22.578125 -38.890625 C 20.234375 -38.890625 18.519531 -38.382812 17.4375 -37.375 C 16.351562 -36.363281 15.8125 -35.148438 15.8125 -33.734375 C 15.8125 -32.585938 16.066406 -31.660156 16.578125 -30.953125 C 17.085938 -30.253906 18.039062 -29.671875 19.4375 -29.203125 C 20.84375 -28.734375 22.867188 -28.289062 25.515625 -27.875 C 27.921875 -27.507812 30.160156 -27.023438 32.234375 -26.421875 C 34.316406 -25.816406 36.132812 -24.992188 37.6875 -23.953125 C 39.238281 -22.921875 40.453125 -21.582031 41.328125 -19.9375 C 42.203125 -18.300781 42.640625 -16.25 42.640625 -13.78125 C 42.640625 -10.375 41.785156 -7.546875 40.078125 -5.296875 C 38.378906 -3.054688 36.0625 -1.378906 33.125 -0.265625 C 30.1875 0.847656 26.851562 1.40625 23.125 1.40625 Z M 23.125 1.40625 "/></g></g><g style="fill:#000000;fill-opacity:1;"><g transform="translate(318.329682, 116.696071)"><path style="stroke:none" d="M 17.34375 0 L 6.40625 0 L 6.40625 -63.59375 L 17.34375 -63.59375 L 17.34375 -44.671875 L 17.078125 -39.46875 C 18.515625 -42 20.582031 -44.023438 23.28125 -45.546875 C 25.976562 -47.066406 29.101562 -47.828125 32.65625 -47.828125 C 38.882812 -47.828125 43.550781 -45.847656 46.65625 -41.890625 C 49.757812 -37.929688 51.3125 -32.304688 51.3125 -25.015625 L 51.3125 0 L 40.375 0 L 40.375 -24.796875 C 40.375 -29.398438 39.410156 -32.710938 37.484375 -34.734375 C 35.554688 -36.753906 32.9375 -37.765625 29.625 -37.765625 C 28.03125 -37.765625 26.492188 -37.421875 25.015625 -36.734375 C 23.546875 -36.054688 22.226562 -35.097656 21.0625 -33.859375 C 19.90625 -32.628906 18.992188 -31.148438 18.328125 -29.421875 C 17.671875 -27.691406 17.34375 -25.789062 17.34375 -23.71875 Z M 17.34375 0 "/></g></g></g></svg>